<svg width="27" height="27" viewBox="0 0 27 27" fill="none" xmlns="http://www.w3.org/2000/svg">
<g clip-path="url(#clip0)">
<path fill-rule="evenodd" clip-rule="evenodd" d="M13.5001 0.28714C6.32129 0.28714 0.5 6.25465 0.5 13.6163C0.5 19.5054 4.22493 24.5017 9.39027 26.2642C10.04 26.3876 10.2785 25.9751 10.2785 25.623C10.2785 25.3052 10.2664 24.2552 10.2608 23.1414C6.6442 23.9477 5.88105 21.5688 5.88105 21.5688C5.28968 20.0281 4.43762 19.6184 4.43762 19.6184C3.25812 18.7912 4.52653 18.8081 4.52653 18.8081C5.83196 18.9022 6.51934 20.1817 6.51934 20.1817C7.67882 22.2194 9.56055 21.6303 10.3024 21.2898C10.4191 20.4283 10.756 19.8403 11.1278 19.5074C8.24026 19.1704 5.20486 18.0274 5.20486 12.9201C5.20486 11.4649 5.7127 10.2758 6.54431 9.34237C6.40934 9.00665 5.96436 7.65096 6.67025 5.81497C6.67025 5.81497 7.76192 5.45673 10.2462 7.18126C11.2832 6.88593 12.3953 6.73782 13.5001 6.73274C14.6049 6.73782 15.7179 6.88593 16.7568 7.18126C19.2381 5.45673 20.3282 5.81497 20.3282 5.81497C21.0359 7.65096 20.5907 9.00665 20.4557 9.34237C21.2892 10.2758 21.7936 11.4649 21.7936 12.9201C21.7936 18.0396 18.7524 19.1668 15.8576 19.4968C16.3239 19.9104 16.7394 20.7216 16.7394 21.9652C16.7394 23.7486 16.7243 25.184 16.7243 25.623C16.7243 25.9777 16.9583 26.3934 17.6173 26.2625C22.7798 24.498 26.5 19.5034 26.5 13.6163C26.5 6.25465 20.6796 0.28714 13.5001 0.28714Z" fill="#1E1E1E"/>
</g>
<defs>
<clipPath id="clip0">
<rect width="26" height="26" fill="white" transform="translate(0.5 0.28714)"/>
</clipPath>
</defs>
</svg>
