<svg width="18" height="18" viewBox="0 0 18 18" fill="none" xmlns="http://www.w3.org/2000/svg">
<path fill-rule="evenodd" clip-rule="evenodd" d="M12.1352 0.959473C12.2078 1.90765 11.9079 2.84678 11.2993 3.57744C10.7088 4.31188 9.81403 4.73492 8.87168 4.72522C8.81176 3.80434 9.12034 2.89741 9.72947 2.20418C10.3463 1.50156 11.2053 1.05714 12.1352 0.959473ZM15.1154 6.53074C14.0314 7.19716 13.3644 8.37243 13.348 9.64478C13.3495 11.0843 14.2116 12.3834 15.5374 12.9442C15.2824 13.7725 14.8981 14.5553 14.3986 15.2635C13.7278 16.267 13.0245 17.2473 11.9082 17.2654C11.3773 17.2776 11.019 17.125 10.6455 16.9659C10.256 16.8 9.85012 16.6271 9.21497 16.6271C8.54136 16.6271 8.11729 16.8055 7.7083 16.9777C7.35485 17.1264 7.01267 17.2704 6.53042 17.2904C5.46733 17.3298 4.65487 16.2195 3.95969 15.2255C2.57024 13.1955 1.48829 9.50471 2.93879 6.9934C3.61993 5.76941 4.89348 4.99272 6.29348 4.94749C6.89642 4.93509 7.47499 5.16748 7.98223 5.37122C8.37015 5.52704 8.71636 5.6661 8.99986 5.6661C9.24907 5.6661 9.58562 5.53253 9.97784 5.37686C10.5957 5.13165 11.3517 4.83161 12.122 4.91248C13.3191 4.94993 14.4285 5.54965 15.1154 6.53074Z" fill="white"/>
</svg>
