<svg width="27" height="27" viewBox="0 0 27 27" fill="none" xmlns="http://www.w3.org/2000/svg">
<g clip-path="url(#clip0)">
<path d="M8.67648 23.5801C18.4878 23.5801 23.8542 15.4515 23.8542 8.40236C23.8542 8.17148 23.8542 7.94164 23.8386 7.71284C24.8826 6.95771 25.7838 6.02271 26.5 4.95164C25.5265 5.38324 24.4937 5.66616 23.4362 5.79092C24.5498 5.12433 25.3833 4.07577 25.7814 2.84044C24.7343 3.46185 23.5887 3.89975 22.3941 4.13524C21.5898 3.28003 20.5261 2.71373 19.3675 2.52398C18.209 2.33423 17.0202 2.5316 15.9851 3.08555C14.9501 3.6395 14.1264 4.51914 13.6416 5.58837C13.1569 6.65759 13.038 7.85677 13.3034 9.00036C11.1826 8.89397 9.1079 8.34281 7.21391 7.38264C5.31992 6.42248 3.64899 5.07477 2.3096 3.427C1.62746 4.60133 1.41853 5.99149 1.72536 7.31446C2.03219 8.63742 2.8317 9.7937 3.96112 10.5479C3.11217 10.523 2.2817 10.294 1.54 9.8802V9.9478C1.54034 11.1794 1.96667 12.3729 2.74669 13.326C3.52672 14.2791 4.6124 14.933 5.8196 15.1769C5.03427 15.3911 4.21028 15.4224 3.41096 15.2684C3.75197 16.3283 4.41563 17.2551 5.30918 17.9193C6.20272 18.5835 7.28148 18.9519 8.39464 18.9729C7.28864 19.8423 6.02209 20.485 4.66745 20.8644C3.3128 21.2438 1.89665 21.3524 0.5 21.184C2.93949 22.7494 5.77792 23.5798 8.67648 23.576" fill="#1E1E1E"/>
</g>
<defs>
<clipPath id="clip0">
<rect width="26" height="26" fill="white" transform="translate(0.5 0.28714)"/>
</clipPath>
</defs>
</svg>
